<svg width="16" height="16" viewBox="0 0 16 16" fill="none" xmlns="http://www.w3.org/2000/svg">
<path d="M8.57727 2.0002L14.9281 13.0002C15.1123 13.3191 15.003 13.7268 14.6841 13.9109C14.5828 13.9694 14.4678 14.0002 14.3508 14.0002H1.64909C1.2809 14.0002 0.982422 13.7017 0.982422 13.3335C0.982422 13.2165 1.01323 13.1015 1.07174 13.0002L7.4226 2.0002C7.60667 1.68133 8.0144 1.57208 8.33327 1.75618C8.4346 1.81469 8.5188 1.89885 8.57727 2.0002ZM2.80379 12.6669H13.1961L7.99994 3.66686L2.80379 12.6669ZM7.33327 10.6669H8.6666V12.0002H7.33327V10.6669ZM7.33327 6.0002H8.6666V9.33355H7.33327V6.0002Z" fill="#FFBB00"/>
</svg>
