<svg width="16" height="16" viewBox="0 0 16 16" fill="none" xmlns="http://www.w3.org/2000/svg">
<path d="M13.1858 2.81452C14.7478 4.37661 14.7478 6.90929 13.1858 8.47136L8.47169 13.1854C6.90955 14.7475 4.37692 14.7475 2.81482 13.1854C1.25273 11.6233 1.25273 9.09069 2.81482 7.52856L7.52889 2.81452C9.09095 1.25242 11.6236 1.25242 13.1858 2.81452ZM9.41495 10.3565L5.64372 6.58528L3.75763 8.47136C2.71623 9.51276 2.71623 11.2012 3.75763 12.2426C4.79903 13.284 6.48747 13.284 7.52889 12.2426L9.41495 10.3565ZM12.2429 3.75733C11.2015 2.71593 9.51309 2.71593 8.47169 3.75733L6.58653 5.64247L10.3578 9.41369L12.2429 7.52856C13.2843 6.48717 13.2843 4.79873 12.2429 3.75733Z" fill="#666666"/>
</svg>
