<svg width="16" height="16" viewBox="0 0 16 16" fill="none" xmlns="http://www.w3.org/2000/svg">
<path d="M7.33328 1.36627L7.33334 3.38061C5.07181 3.7041 3.33334 5.64903 3.33334 8.00002C3.33334 10.5774 5.42268 12.6667 8.00001 12.6667C9.04821 12.6667 10.0157 12.3211 10.7948 11.7376L12.2193 13.1619C11.07 14.1024 9.60094 14.6667 8.00001 14.6667C4.31811 14.6667 1.33334 11.6819 1.33334 8.00002C1.33334 4.54314 3.96442 1.70079 7.33328 1.36627ZM14.6337 8.66675C14.5006 10.0074 13.9703 11.2312 13.1622 12.2189L11.7376 10.7948C12.1951 10.184 12.5063 9.45728 12.6194 8.66669L14.6337 8.66675ZM8.66741 1.36634C11.8167 1.67937 14.321 4.18395 14.6337 7.33329L12.6194 7.33322C12.327 5.2897 10.7107 3.6733 8.66734 3.38071L8.66741 1.36634Z" fill="#333333"/>
</svg>
