<svg width="18" height="20" viewBox="0 0 18 20" fill="none" xmlns="http://www.w3.org/2000/svg">
<path d="M1.5882 0C0.711119 0 0 0.710443 0 1.58592V18.4144C0 19.2905 0.711119 20 1.5882 20H15.9217C16.7988 20 17.5106 19.2902 17.5106 18.4144V6.34837L11.5911 0H1.5882Z" fill="#49C9A7"/>
<path d="M17.5114 6.36117V6.67372H13.5037C12.186 6.41118 11.5463 5.7124 11.5845 4.57739C11.6279 5.76657 12.2546 6.36117 13.4645 6.36117H17.5114Z" fill="#37BB91"/>
<path opacity="0.5" d="M11.5924 0V4.55117C11.5924 5.06877 11.9381 6.3612 13.5038 6.3612H17.5115L11.5924 0Z" fill="white"/>
<path fill-rule="evenodd" clip-rule="evenodd" d="M3.15198 16.7965V10.2628H9.69829V16.7965H3.15198ZM9.03852 10.907H3.81207V14.8452H9.03852V10.907ZM6.0378 13.5275L7.26183 11.8847L7.63977 12.5482L8.07661 12.4126L8.38469 14.1726H4.28834L5.38304 13.1349L6.0378 13.5275ZM4.83038 12.3898C4.54542 12.3898 4.31401 12.1747 4.31401 11.9091C4.31401 11.6437 4.54542 11.4283 4.83038 11.4283C5.11595 11.4283 5.34704 11.6437 5.34704 11.9091C5.34704 12.1747 5.11595 12.3898 4.83038 12.3898Z" fill="white"/>
</svg>
