<svg width="18" height="20" viewBox="0 0 18 20" fill="none" xmlns="http://www.w3.org/2000/svg">
<path fill-rule="evenodd" clip-rule="evenodd" d="M1.58707 0C0.71047 0 0 0.710442 0 1.5859V18.4141C0 19.2902 0.71047 20 1.58707 20H15.9073C16.7836 20 17.4947 19.2902 17.4947 18.4141V6.34796L11.5813 0H1.58707Z" fill="#E34221"/>
<path d="M17.4999 6.36223V6.67479H13.4958C12.1794 6.41225 11.5402 5.71348 11.5784 4.57849C11.6218 5.76765 12.2479 6.36223 13.4567 6.36223H17.4999Z" fill="#DC3119"/>
<path opacity="0.5" d="M11.5862 0.0012207V4.55232C11.5862 5.06991 11.9316 6.36231 13.4958 6.36231H17.4999L11.5862 0.0012207Z" fill="white"/>
<path fill-rule="evenodd" clip-rule="evenodd" d="M4.66928 15.3198H3.62719V16.614C3.62719 16.7434 3.52584 16.8447 3.39068 16.8447C3.26117 16.8447 3.15979 16.7434 3.15979 16.614V13.3954C3.15979 13.2097 3.31184 13.0575 3.49767 13.0575H4.66928C5.42418 13.0575 5.84652 13.5754 5.84652 14.1886C5.84652 14.8022 5.41261 15.3198 4.66928 15.3198ZM4.61267 13.4738H3.62719V14.9031H4.61267C5.05784 14.9031 5.36192 14.6106 5.36192 14.1883C5.36192 13.7667 5.05784 13.4738 4.61267 13.4738ZM7.07319 15.3198H8.1156C8.85893 15.3198 9.29283 14.8022 9.29283 14.1886C9.29283 13.5754 8.8702 13.0575 8.1156 13.0575H6.94368C6.75785 13.0575 6.6058 13.2097 6.6058 13.3954V16.614C6.6058 16.7434 6.70718 16.8447 6.8367 16.8447C6.97183 16.8447 7.07319 16.7434 7.07319 16.614V15.3198ZM8.05929 13.4738H7.0735V14.9031H8.05929C8.50448 14.9031 8.80856 14.6106 8.80856 14.1883C8.80825 13.7667 8.50448 13.4738 8.05929 13.4738ZM11.449 13.4738H12.4742C12.5868 13.4738 12.6772 13.3838 12.6769 13.2716C12.6769 13.1475 12.5868 13.0575 12.4742 13.0575H9.96202C9.84939 13.0575 9.7596 13.1472 9.7596 13.26C9.7596 13.3838 9.84939 13.4738 9.96202 13.4738H10.9816V16.614C10.9816 16.7434 11.083 16.8447 11.2125 16.8447C11.3476 16.8447 11.449 16.7434 11.449 16.614V13.4738Z" fill="white"/>
</svg>
