<svg width="16" height="16" viewBox="0 0 16 16" fill="none" xmlns="http://www.w3.org/2000/svg">
<path d="M7.26949 1.40015L13.8692 2.34295L14.812 8.94265L8.68369 15.0708C8.42336 15.3312 8.00129 15.3312 7.74089 15.0708L1.14125 8.47125C0.880896 8.21085 0.880896 7.78878 1.14125 7.52838L7.26949 1.40015ZM7.74089 2.81436L2.55546 7.99978L8.21229 13.6566L13.3978 8.47125L12.6907 3.52147L7.74089 2.81436ZM9.15516 7.05698C8.63442 6.5363 8.63442 5.69208 9.15516 5.17138C9.67582 4.65069 10.52 4.65069 11.0408 5.17138C11.5614 5.69208 11.5614 6.5363 11.0408 7.05698C10.52 7.57771 9.67582 7.57771 9.15516 7.05698Z" fill="#666666"/>
</svg>
