<svg width="16" height="16" viewBox="0 0 16 16" fill="none" xmlns="http://www.w3.org/2000/svg">
<path d="M11.643 2C13.1623 2 14.3939 3.22533 14.3939 4.73684V6.35716H13.0185V4.73684C13.0185 3.98108 12.4027 3.36842 11.643 3.36842H3.75086C2.99123 3.36842 2.37543 3.98108 2.37543 4.73684V12.2632C2.37543 13.0189 2.99123 13.6316 3.75086 13.6316H4.87309V15H3.75086C2.2316 15 1 13.7747 1 12.2632V4.73684C1 3.22533 2.2316 2 3.75086 2H11.643Z" fill="#333333"/>
<path fill-rule="evenodd" clip-rule="evenodd" d="M9.09367 5.62151C11.5625 5.62151 13.5638 7.61266 13.5638 10.0689C13.5638 10.9618 13.2978 11.7923 12.8425 12.489L14.3939 14.0325L13.4214 15L11.9238 13.51C11.1529 14.1383 10.1679 14.5162 9.09367 14.5162C6.62488 14.5162 4.62353 12.5251 4.62353 10.0689C4.62353 7.61266 6.62488 5.62151 9.09367 5.62151ZM9.09367 6.98993C7.38451 6.98993 5.99896 8.36842 5.99896 10.0689C5.99896 11.7693 7.38451 13.1478 9.09367 13.1478C10.8028 13.1478 12.1884 11.7693 12.1884 10.0689C12.1884 8.36842 10.8028 6.98993 9.09367 6.98993Z" fill="#333333"/>
</svg>
