<svg width="16" height="16" viewBox="0 0 16 16" fill="none" xmlns="http://www.w3.org/2000/svg">
<path d="M2.22631 11.3334C1.93814 10.8343 1.72185 10.3134 1.57422 9.78271C2.22253 9.45191 2.66648 8.77785 2.66648 8.00011C2.66648 7.22298 2.2232 6.54931 1.57569 6.21825C1.8735 5.14432 2.43905 4.14416 3.24316 3.32665C3.8538 3.72275 4.65957 3.77021 5.33315 3.38131C6.00673 2.99242 6.36851 2.27088 6.3308 1.54401C7.44087 1.25638 8.5898 1.26667 9.66873 1.54573C9.63167 2.27202 9.9934 2.99273 10.6665 3.38131C11.3401 3.77019 12.1458 3.72275 12.7564 3.32669C13.1422 3.71989 13.4851 4.16765 13.7733 4.66679C14.0615 5.16591 14.2778 5.68681 14.4254 6.2175C13.7771 6.54829 13.3331 7.22238 13.3331 8.00011C13.3331 8.77731 13.7764 9.45091 14.4239 9.78198C14.1261 10.8559 13.5606 11.856 12.7565 12.6736C12.1458 12.2775 11.3401 12.23 10.6665 12.6189C9.99287 13.0078 9.63113 13.7294 9.6688 14.4562C8.5588 14.7438 7.40987 14.7336 6.33089 14.4545C6.36794 13.7282 6.00619 13.0075 5.33315 12.6189C4.65959 12.23 3.85386 12.2774 3.24323 12.6735C2.85745 12.2803 2.51448 11.8326 2.22631 11.3334ZM5.99981 11.4642C6.7274 11.8843 7.24993 12.5484 7.5002 13.3106C7.8324 13.3422 8.1668 13.3426 8.49907 13.3116C8.7492 12.5491 9.27187 11.8845 9.9998 11.4642C10.7277 11.0439 11.5647 10.9236 12.3501 11.0882C12.5431 10.816 12.7099 10.5261 12.8486 10.2226C12.3137 9.62485 11.9998 8.84025 11.9998 8.00011C11.9998 7.15998 12.3137 6.37545 12.8486 5.77765C12.7792 5.62698 12.7025 5.47879 12.6186 5.33345C12.5347 5.18811 12.4447 5.04763 12.3489 4.91226C11.5638 5.07649 10.7274 4.95607 9.9998 4.53601C9.2722 4.11595 8.74973 3.45177 8.4994 2.68968C8.16727 2.65807 7.8328 2.65762 7.5006 2.68859C7.2504 3.45112 6.72773 4.11574 5.99981 4.53601C5.27187 4.95629 4.43497 5.07661 3.64952 4.912C3.45657 5.18425 3.28975 5.47409 3.15104 5.77756C3.68587 6.37539 3.99981 7.15998 3.99981 8.00011C3.99981 8.84025 3.68589 9.62478 3.15104 10.2226C3.22045 10.3732 3.29709 10.5214 3.38101 10.6668C3.46493 10.8121 3.55493 10.9526 3.65075 11.088C4.43585 10.9238 5.27225 11.0442 5.99981 11.4642ZM7.9998 10.0001C6.89527 10.0001 5.99981 9.10471 5.99981 8.00011C5.99981 6.89558 6.89527 6.00012 7.9998 6.00012C9.1044 6.00012 9.9998 6.89558 9.9998 8.00011C9.9998 9.10471 9.1044 10.0001 7.9998 10.0001ZM7.9998 8.66678C8.368 8.66678 8.66647 8.36831 8.66647 8.00011C8.66647 7.63191 8.368 7.33345 7.9998 7.33345C7.6316 7.33345 7.33313 7.63191 7.33313 8.00011C7.33313 8.36831 7.6316 8.66678 7.9998 8.66678Z" fill="#999999"/>
</svg>
