<svg width="16" height="16" viewBox="0 0 16 16" fill="none" xmlns="http://www.w3.org/2000/svg">
<g clip-path="url(#clip0_1551_240)">
<path d="M11.3338 0.805481L12.213 2.45403L13.8615 3.33326L12.213 4.21249L11.3338 5.86104L10.4545 4.21249L8.806 3.33326L10.4545 2.45403L11.3338 0.805481ZM7.11153 6.22215L10.4449 7.99991L7.11153 9.77771L5.33377 13.111L3.55599 9.77771L0.222656 7.99991L3.55599 6.22215L5.33377 2.88881L7.11153 6.22215ZM7.61153 7.99991L6.12603 7.20765L5.33377 5.72215L4.54149 7.20765L3.05599 7.99991L4.54149 8.79218L5.33377 10.2777L6.12603 8.79218L7.61153 7.99991ZM13.1115 10.8888L12.0005 8.80551L10.8893 10.8888L8.806 11.9999L10.8893 13.111L12.0005 15.1944L13.1115 13.111L15.1949 11.9999L13.1115 10.8888Z" fill="#333333"/>
</g>
<defs>
<clipPath id="clip0_1551_240">
<rect width="16" height="16" fill="white"/>
</clipPath>
</defs>
</svg>
