<svg width="16" height="16" viewBox="0 0 16 16" fill="none" xmlns="http://www.w3.org/2000/svg">
<path d="M8 14.6666C4.3181 14.6666 1.33334 11.6818 1.33334 7.99992C1.33334 4.31802 4.3181 1.33325 8 1.33325C11.6819 1.33325 14.6667 4.31802 14.6667 7.99992C14.6667 11.6818 11.6819 14.6666 8 14.6666ZM8 13.3333C10.9455 13.3333 13.3333 10.9455 13.3333 7.99992C13.3333 5.0544 10.9455 2.66659 8 2.66659C5.05448 2.66659 2.66667 5.0544 2.66667 7.99992C2.66667 10.9455 5.05448 13.3333 8 13.3333ZM7.33334 9.99992H8.66667V11.3333H7.33334V9.99992ZM7.33334 4.66659H8.66667V8.66658H7.33334V4.66659Z" fill="#FA4D56"/>
</svg>
