<svg width="18" height="20" viewBox="0 0 18 20" fill="none" xmlns="http://www.w3.org/2000/svg">
<path fill-rule="evenodd" clip-rule="evenodd" d="M1.58751 0C0.710673 0 0 0.710432 0 1.5859V18.4141C0 19.2902 0.710988 20 1.58751 20H15.9121C16.7886 20 17.4999 19.2902 17.4999 18.4141V6.34797L11.5842 0H1.58751Z" fill="#3C8CEA"/>
<path fill-rule="evenodd" clip-rule="evenodd" d="M9.90692 11.6982H3.15881V12.3418H9.90692V11.6982ZM9.90692 13.1988H3.15881V13.8417H9.90692V13.1988ZM3.15881 14.6994H9.90692V15.3423H3.15881V14.6994ZM6.98693 16.1996H3.15881V16.8429H6.98693V16.1996Z" fill="white"/>
<path d="M17.4995 6.36541V6.67796H13.4943C12.1775 6.41542 11.5381 5.71665 11.5763 4.58167C11.6197 5.77083 12.246 6.36541 13.4552 6.36541H17.4995Z" fill="#2D6FE4"/>
<path opacity="0.5" d="M11.5846 0.00427246V4.55536C11.5846 5.07295 11.9301 6.36536 13.4947 6.36536H17.5L11.5846 0.00427246Z" fill="white"/>
</svg>
