<svg width="13.71" height="13.71" viewBox="0 0 13.71 13.71" fill="none" xmlns="http://www.w3.org/2000/svg">
<path d="M1.7143 7.42838H5.14286V6.28552H1.7143V1.05449C1.7143 0.89669 1.84222 0.768773 2.00001 0.768773C2.04814 0.768773 2.09552 0.78094 2.1377 0.80414L12.6877 6.60667C12.8259 6.68268 12.8765 6.85637 12.8004 6.99467C12.7743 7.04217 12.7352 7.08127 12.6877 7.10737L2.1377 12.9099C2.00001 12.9859 1.82571 12.9354 1.74966 12.7972C1.72646 12.755 1.7143 12.7076 1.7143 12.6595V7.42838Z" fill="white"/>
</svg>
<svg width="24" height="24" viewBox="0 0 24 24" fill="none" xmlns="http://www.w3.org/2000/svg">
<rect width="24" height="24" rx="12" fill="#2A6DE7"/>
<g clip-path="url(#clip0_1400_531)">
<path d="M6.85715 12.5712H10.2857V11.4284H6.85715V6.19734C6.85715 6.03954 6.98507 5.91162 7.14286 5.91162C7.191 5.91162 7.23837 5.92379 7.28055 5.94699L17.8305 11.7495C17.9688 11.8255 18.0193 11.9992 17.9432 12.1375C17.9171 12.185 17.878 12.2241 17.8305 12.2502L7.28055 18.0527C7.14229 18.1287 6.96856 18.0783 6.89251 17.94C6.86931 17.8978 6.85715 17.8505 6.85715 17.8023V12.5712Z" fill="white"/>
</g>
<defs>
<clipPath id="clip0_1400_531">
<rect width="13.7143" height="13.7143" fill="white" transform="translate(5.14285 5.14282)"/>
</clipPath>
</defs>
</svg>
