<svg width="18" height="20" viewBox="0 0 18 20" fill="none" xmlns="http://www.w3.org/2000/svg">
<path d="M1.59375 0C0.718746 0 0 0.718751 0 1.59375V18.4062C0 19.2812 0.718746 20 1.59375 20H15.9062C16.7813 20 17.5 19.2812 17.5 18.4062V6.34375L11.5938 0H1.59375Z" fill="#8C181A"/>
<path d="M17.5 6.37499V6.68749H13.5C12.1875 6.41666 11.5521 5.71875 11.5937 4.59375C11.6354 5.78125 12.2604 6.37499 13.4687 6.37499H17.5Z" fill="#6B0D12"/>
<path opacity="0.5" d="M11.5938 0V4.5625C11.5938 5.09375 11.9375 6.375 13.5 6.375H17.5L11.5938 0Z" fill="white"/>
<path fill-rule="evenodd" clip-rule="evenodd" d="M4.65625 15.3125H3.625V16.5938C3.625 16.7188 3.53125 16.8125 3.375 16.8125C3.25 16.8125 3.15625 16.7188 3.15625 16.5938V13.4063C3.15625 13.2188 3.3125 13.0625 3.5 13.0625H4.65625C5.40625 13.0625 5.84375 13.5938 5.84375 14.1875C5.84375 14.8125 5.40625 15.3125 4.65625 15.3125ZM4.625 13.4688H3.625V14.9063H4.625C5.0625 14.9063 5.375 14.625 5.375 14.1875C5.375 13.75 5.0625 13.4688 4.625 13.4688ZM6.9375 16.8125H7.875C9.0625 16.8125 9.8125 16 9.8125 14.9375C9.8125 13.875 9.03125 13.0625 7.875 13.0625H6.9375C6.75 13.0625 6.59375 13.2188 6.59375 13.4063V16.4688C6.59375 16.6563 6.75 16.8125 6.9375 16.8125ZM7.875 13.4688H7.0625V16.375H7.875C8.78125 16.375 9.3125 15.7188 9.3125 14.9063C9.34375 14.125 8.8125 13.4688 7.875 13.4688ZM11.1562 13.4688H12.9688C13.0938 13.4688 13.1875 13.375 13.1562 13.2813C13.1562 13.1563 13.0938 13.0625 12.9688 13.0625H11.0313C10.8437 13.0625 10.6875 13.2188 10.6875 13.4063V16.5938C10.6875 16.7188 10.7813 16.8125 10.9063 16.8125C11.0625 16.8125 11.1562 16.7188 11.1562 16.5938V15.0938H12.9375C13.0312 15.0938 13.125 15.0313 13.125 14.9063C13.125 14.7812 13.0625 14.6875 12.9375 14.6875H11.1562V13.4688Z" fill="white"/>
</svg>
